<?xml version="1.0" encoding="UTF-8" standalone="no"?>
<svg xmlns="http://www.w3.org/2000/svg" xmlns:xlink="http://www.w3.org/1999/xlink" viewBox="0 0 48 48">
  <defs>
    <linearGradient id="a">
      <stop offset="0" stop-color="#dde1d9"/>
      <stop offset="1" stop-color="#cacdc6"/>
    </linearGradient>
    <linearGradient xlink:href="#a" id="j" x1="8.6116" x2="34.784" y1="7.2294" y2="33.34" gradientTransform="matrix(1.1299 0 0 .88506 -1.625 -1.3044)" gradientUnits="userSpaceOnUse"/>
    <linearGradient id="n" x1="17.698" x2="34.975" y1="13.005" y2="55.201" gradientTransform="matrix(1.1081 0 0 .90247 1 1)" gradientUnits="userSpaceOnUse">
      <stop offset="0" stop-color="#fff"/>
      <stop offset="1" stop-color="#fff" stop-opacity="0"/>
    </linearGradient>
    <linearGradient id="o" x1="11.492" x2="17.199" y1="1.6538" y2="26.729" gradientTransform="matrix(1.239 0 0 .89596 .59055 -1.3315)" gradientUnits="userSpaceOnUse">
      <stop offset="0" stop-color="#fff"/>
      <stop offset="1" stop-color="#fcfcff" stop-opacity="0"/>
    </linearGradient>
    <linearGradient id="l" x1="19.15" x2="16.316" y1="32.622" y2="8.8666" gradientTransform="matrix(1.1741 0 0 .94543 .72182 -1.3315)" gradientUnits="userSpaceOnUse">
      <stop offset="0" stop-color="#5b975b"/>
      <stop offset="1" stop-color="#1b431b"/>
    </linearGradient>
    <linearGradient id="m" x1="3.707" x2="3.707" y1="171.29" y2="162.45" gradientTransform="matrix(5.7052 0 0 .17528 1 -.67937)" gradientUnits="userSpaceOnUse">
      <stop offset="0"/>
      <stop offset="1" stop-opacity="0"/>
    </linearGradient>
    <linearGradient id="i" x1="12.207" x2="12.128" y1="53.535" y2="64.893" gradientTransform="scale(1.8163 .55056)" gradientUnits="userSpaceOnUse">
      <stop offset="0" stop-color="#585956"/>
      <stop offset="1" stop-color="#bbbeb8"/>
    </linearGradient>
    <linearGradient id="d" x1="34.301" x2="35.521" y1="3.9384" y2="3.8451" gradientUnits="userSpaceOnUse">
      <stop offset="0" stop-color="#909090"/>
      <stop offset="1" stop-color="#bebebe" stop-opacity="0"/>
    </linearGradient>
    <linearGradient id="v" x1="13.629" x2="8.6485" y1="101.28" y2="74.098" gradientTransform="matrix(2.1436 0 0 .4665 1 -.50883)" gradientUnits="userSpaceOnUse">
      <stop offset="0" stop-color="#f9fff5"/>
      <stop offset="1" stop-color="#f9fff5" stop-opacity="0"/>
    </linearGradient>
    <linearGradient id="c" x1="8.1134" x2="8.1134" y1="88.509" y2="100.2" gradientTransform="scale(2.3099 .43293)" gradientUnits="userSpaceOnUse">
      <stop offset="0" stop-color="#9d9d9d"/>
      <stop offset="1" stop-color="#b9b9b9"/>
    </linearGradient>
    <linearGradient id="b" x1="10.391" x2="32.537" y1="5.3818" y2="31.246" gradientTransform="scale(1.1044 .90547)" gradientUnits="userSpaceOnUse">
      <stop offset="0" stop-color="#8f8f8f"/>
      <stop offset="1" stop-color="#494949"/>
    </linearGradient>
    <linearGradient xlink:href="#a" id="q" x1="18.317" x2="18.177" y1="48.643" y2="52.536" gradientTransform="scale(1.1299 .88506)" gradientUnits="userSpaceOnUse"/>
    <linearGradient id="g" x1="-23.886" x2="-23.886" y1="49.953" y2="44.879" gradientTransform="matrix(1.40373 0 0 .62984 55.404 3.5212)" gradientUnits="userSpaceOnUse">
      <stop offset="0" stop-color="#d8dfd6"/>
      <stop offset="1" stop-color="#d8dfd6" stop-opacity="0"/>
    </linearGradient>
    <linearGradient xlink:href="#b" id="k" x1="10.391" x2="32.537" y1="5.3818" y2="31.246" gradientTransform="scale(1.1044 .90547)" gradientUnits="userSpaceOnUse"/>
    <linearGradient xlink:href="#b" id="r" x1="10.391" x2="32.537" y1="5.3818" y2="31.246" gradientTransform="scale(1.1044 .90547)" gradientUnits="userSpaceOnUse"/>
    <linearGradient xlink:href="#c" id="s" x1="8.1134" x2="8.1134" y1="88.509" y2="100.2" gradientTransform="scale(2.3099 .43293)" gradientUnits="userSpaceOnUse"/>
    <linearGradient xlink:href="#c" id="t" x1="8.1134" x2="8.1134" y1="88.509" y2="100.2" gradientTransform="scale(2.3099 .43293)" gradientUnits="userSpaceOnUse"/>
    <linearGradient xlink:href="#c" id="u" x1="8.1134" x2="8.1134" y1="88.509" y2="100.2" gradientTransform="scale(2.3099 .43293)" gradientUnits="userSpaceOnUse"/>
    <linearGradient xlink:href="#d" id="w" x1="34.301" x2="35.521" y1="3.9384" y2="3.8451" gradientTransform="matrix(1.3312 0 0 .65845 -10.419 2.8539)" gradientUnits="userSpaceOnUse"/>
    <linearGradient xlink:href="#d" id="x" x1="34.301" x2="35.521" y1="3.9384" y2="3.8451" gradientTransform="matrix(1.3312 0 0 .65845 -10.306 4.9597)" gradientUnits="userSpaceOnUse"/>
    <linearGradient xlink:href="#d" id="y" x1="34.301" x2="35.521" y1="3.9384" y2="3.8451" gradientTransform="matrix(1.3312 0 0 .65845 -10.192 6.9597)" gradientUnits="userSpaceOnUse"/>
    <linearGradient xlink:href="#d" id="z" x1="34.301" x2="35.521" y1="3.9384" y2="3.8451" gradientTransform="matrix(1.3312 0 0 .65845 -10.079 8.9597)" gradientUnits="userSpaceOnUse"/>
    <linearGradient xlink:href="#d" id="A" x1="34.301" x2="35.521" y1="3.9384" y2="3.8451" gradientTransform="matrix(1.3312 0 0 .65845 -9.9649 10.96)" gradientUnits="userSpaceOnUse"/>
    <radialGradient id="e" cx="12.576" cy="67.502" r="8.7663" gradientTransform="scale(1.9258 .51926)" gradientUnits="userSpaceOnUse">
      <stop offset="0"/>
      <stop offset="1" stop-opacity="0"/>
    </radialGradient>
    <radialGradient xlink:href="#e" id="f" cx="12.576" cy="67.502" r="8.7663" gradientTransform="matrix(1.9258 0 0 .71082 -1.9786 -13.617)" gradientUnits="userSpaceOnUse"/>
    <radialGradient xlink:href="#e" id="h" cx="12.576" cy="67.502" r="8.7663" gradientTransform="matrix(1.9258 0 0 .71082 -1.9786 -19.021)" gradientUnits="userSpaceOnUse"/>
    <radialGradient xlink:href="#e" id="p" cx="12.576" cy="67.502" r="8.7663" gradientTransform="matrix(2.43498 0 0 .67052 -6.2163 -4.0004)" gradientUnits="userSpaceOnUse"/>
    <filter id="B">
      <feGaussianBlur stdDeviation="6.0955067"/>
    </filter>
    <filter id="C">
      <feGaussianBlur stdDeviation="6.0955067"/>
    </filter>
  </defs>
  <path fill="url(#f)" fill-rule="evenodd" d="M39.1224 34.364314a16.8825 6.2314173 0 1 1-33.765 0 16.8825 6.2314173 0 1 1 33.765 0z" color="#000"/>
  <path fill="#adb0aa" fill-rule="evenodd" stroke="#4b4d4a" d="M31.269 32.9194a9.3945 3.9396419 0 1 1-18.789 0 9.3945 3.9396419 0 1 1 18.789 0z" color="#000"/>
  <path fill="none" stroke="#7b7f7a" stroke-width=".94027001" d="M30.708749 32.212263a8.8333665 3.7043271 0 1 1-17.666733 0 8.8333665 3.7043271 0 1 1 17.666733 0z" color="#000"/>
  <path fill="none" stroke="url(#g)" stroke-width=".6399948" d="M30.708749 31.462263a8.8333665 3.7043271 0 1 1-17.666733 0 8.8333665 3.7043271 0 1 1 17.666733 0z" color="#000"/>
  <path fill="#d0d0d0" fill-rule="evenodd" stroke="#979797" stroke-linejoin="round" stroke-width=".40000001" d="m25.688 28.766-.063 1s4.324 3.599 9 4.203c2.338.301 4.754.702 6.75 1.187 1.996.485 3.588 1.12 4.125 1.656.31.311.451.574.5.782.049.207.038.355-.094.562-.264.416-1.08.968-2.468 1.406C40.66 40.44 35.717 41 28.875 41v1c6.896 0 11.864-.528 14.844-1.469 1.49-.47 2.525-1.015 3.031-1.812.253-.399.357-.889.25-1.344-.107-.455-.385-.885-.781-1.281-.878-.878-2.537-1.407-4.594-1.906-2.057-.5-4.516-.915-6.875-1.219-4.719-.609-9.062-4.203-9.062-4.203Z"/>
  <path fill="url(#h)" fill-rule="evenodd" d="M39.1224 28.960314a16.8825 6.2314173 0 1 1-33.765 0 16.8825 6.2314173 0 1 1 33.765 0z" color="#000"/>
  <path fill="url(#i)" fill-rule="evenodd" d="M17.472 30.704h9.0396996v2.74H17.472z" color="#000"/>
  <path fill="url(#j)" fill-rule="evenodd" stroke="url(#k)" d="M7.0809 1.6956h29.588c.911 0 1.624.5835 1.667 1.4016l1.332 25.578c.058 1.118-.901 2.021-2.02 2.021H6.1019c-1.1188 0-2.0781-.903-2.0199-2.021l1.3321-25.578c.0402-.7733.5475-1.4014 1.6667-1.4014Z" color="#000"/>
  <path fill="url(#l)" fill-rule="evenodd" stroke="#007900" stroke-linejoin="round" stroke-width=".5" d="m8.4105 4.3058-1.2422 22.045h27.651l-1.335-21.952-25.074-.0932z"/>
  <path fill="none" stroke="url(#m)" stroke-linecap="round" stroke-opacity=".24841003" stroke-width=".99618" d="M6.1774 28.736h31.429"/>
  <path fill="none" stroke="url(#n)" stroke-opacity=".70064003" d="m6.9146 2.7063 29.845-.0378c.284-.0003.559.2373.582.6526l1.362 24.803c.058 1.057-.54 1.786-1.598 1.786H6.5816c-1.0589 0-1.5933-.729-1.5361-1.786l1.3241-24.494c.0387-.7157.1664-.9232.5446-.9237Z" color="#000"/>
  <path fill="url(#o)" fill-rule="evenodd" d="m8.7115 4.7464-.8025 17.871c11.045-2.401 11.421-10.493 25.154-13.147l-.161-4.6576-24.19-.066Z" opacity=".53142999"/>
  <path fill="url(#p)" fill-rule="evenodd" d="M45.751804 41.260956a21.346233 5.8781717 0 1 1-42.6924656 0 21.346233 5.8781717 0 1 1 42.6924656 0z" color="#000"/>
  <path fill="url(#q)" fill-rule="evenodd" stroke="url(#r)" d="M6.4622 36.817h31.003c1.119 0 .977.272 1.092.613l2.834 8.425c.115.342.027.613-1.092.613H3.6272c-1.1187 0-1.2066-.271-1.0917-.613l2.8347-8.425c.1148-.341-.0271-.613 1.0922-.613Z" color="#000"/>
  <path fill="#7a7d77" fill-rule="evenodd" d="m6.3917 38.829-1.7678 5.127h5.4801l.53-2.033h14.85l.549 2.075h6.168l-1.679-5.169H6.392z"/>
  <path fill="#777874" fill-rule="evenodd" d="m11.076 42.276-.442 1.68h14.761l-.442-1.768-13.877.088z"/>
  <path fill="#777a75" fill-rule="evenodd" d="m37.593 38.829 1.679 5.038-5.48-.088-1.503-4.861 5.304-.089z" color="#000"/>
  <path fill="url(#s)" fill-rule="evenodd" d="m37.593 38.299 1.679 5.038-5.48-.088-1.503-4.862 5.304-.088z" color="#000"/>
  <path fill="url(#t)" fill-rule="evenodd" d="m6.3917 38.21-1.7678 5.127h5.4801l.53-2.033h14.85l.549 2.075h6.168l-1.679-5.169H6.392z"/>
  <path fill="url(#u)" fill-rule="evenodd" d="m11.076 41.746-.442 1.679h14.761l-.442-1.767-13.877.088z" color="#000"/>
  <path fill="none" stroke="url(#v)" stroke-linejoin="round" stroke-width=".5" d="M6.1278 37.578h31.826l2.637 8.093H3.3298l2.7978-8.093z" color="#000"/>
  <path fill="url(#w)" fill-rule="evenodd" d="M36.999675 5.4471395a1.118208.553098 0 0 1-2.236416 0 1.118208.553098 0 1 1 2.236416 0z" color="#000"/>
  <path fill="url(#x)" fill-rule="evenodd" d="M37.112675 7.5529395a1.118208.553098 0 0 1-2.236416 0 1.118208.553098 0 1 1 2.236416 0z" color="#000"/>
  <path fill="url(#y)" fill-rule="evenodd" d="M37.226675 9.5529395a1.118208.553098 0 0 1-2.236416 0 1.118208.553098 0 1 1 2.236416 0z" color="#000"/>
  <path fill="url(#z)" fill-rule="evenodd" d="M37.339675 11.552939a1.118208.553098 0 0 1-2.236416 0 1.118208.553098 0 1 1 2.236416 0z" color="#000"/>
  <path fill="url(#A)" fill-rule="evenodd" d="M37.453775 13.553239a1.118208.553098 0 0 1-2.236416 0 1.118208.553098 0 1 1 2.236416 0z" color="#000"/>
</svg>
